# Blender 4.4.3
# www.blender.org
mtllib kart_wheel.mtl
o Wheels
v -0.139167 0.111466 -0.046170
v 0.105975 0.111785 -0.046303
v -0.139167 0.046171 -0.111466
v 0.105975 0.046303 -0.111785
v -0.139167 -0.046171 -0.111466
v 0.105975 -0.046303 -0.111785
v -0.139167 -0.111466 -0.046170
v 0.105975 -0.111785 -0.046303
v -0.139167 -0.111466 0.046171
v 0.105975 -0.111785 0.046303
v -0.139167 -0.046171 0.111466
v 0.105975 -0.046303 0.111785
v -0.139167 0.046171 0.111466
v 0.105975 0.046303 0.111785
v -0.139167 0.111466 0.046171
v 0.105975 0.111785 0.046303
v 0.105975 0.084653 -0.204370
v 0.105975 0.204370 -0.084653
v 0.105975 -0.084653 -0.204370
v 0.105975 -0.204370 -0.084653
v 0.105975 -0.204370 0.084653
v 0.105975 -0.084653 0.204370
v 0.105975 0.084653 0.204370
v 0.105975 0.204370 0.084653
v 0.055624 0.017564 -0.042404
v 0.055624 0.042404 -0.017564
v 0.055624 -0.017564 -0.042404
v 0.055624 -0.042404 -0.017564
v 0.055624 -0.042404 0.017565
v 0.055624 -0.017564 0.042404
v 0.055624 0.017564 0.042404
v 0.055624 0.042404 0.017565
v 0.055624 0.046303 -0.111785
v 0.055624 0.111785 -0.046303
v 0.055624 -0.046303 -0.111785
v 0.055624 -0.111785 -0.046303
v 0.055624 -0.111785 0.046303
v 0.055624 -0.046303 0.111785
v 0.055624 0.046303 0.111785
v 0.055624 0.111785 0.046303
v 0.076817 0.017564 -0.042404
v 0.076817 0.042404 -0.017564
v 0.076817 -0.017564 -0.042404
v 0.076817 -0.042404 -0.017564
v 0.076817 -0.042404 0.017565
v 0.076817 -0.017564 0.042404
v 0.076817 0.017564 0.042404
v 0.076817 0.042404 0.017565
v -0.139167 0.204370 -0.084653
v -0.139167 0.084653 -0.204370
v -0.139167 -0.084653 -0.204370
v -0.139167 -0.204370 -0.084653
v -0.139167 -0.204370 0.084653
v -0.139167 -0.084653 0.204370
v -0.139167 0.084653 0.204370
v -0.139167 0.204370 0.084653
v -0.121678 0.111466 -0.046170
v -0.121678 0.046171 -0.111466
v -0.121678 -0.046171 -0.111466
v -0.121678 -0.111466 -0.046170
v -0.121678 -0.111466 0.046171
v -0.121678 -0.046171 0.111466
v -0.121678 0.046171 0.111466
v -0.121678 0.111466 0.046171
v -0.016596 0.204370 -0.084653
v -0.139167 0.156238 -0.156238
v 0.105975 0.156238 -0.156238
v -0.016596 0.084653 -0.204370
v -0.139167 0.000000 -0.220953
v 0.105975 -0.000000 -0.220953
v -0.016596 -0.084653 -0.204370
v -0.139167 -0.156238 -0.156238
v 0.105975 -0.156238 -0.156238
v -0.016596 -0.204370 -0.084653
v -0.139167 -0.220954 0.000000
v 0.105975 -0.220954 0.000000
v -0.016596 -0.204370 0.084653
v -0.139167 -0.156238 0.156238
v 0.105975 -0.156238 0.156238
v -0.016596 -0.084653 0.204370
v -0.139167 0.000000 0.220954
v 0.105975 -0.000000 0.220954
v -0.016596 0.084653 0.204370
v -0.139167 0.156238 0.156238
v 0.105975 0.156238 0.156238
v -0.016596 0.204370 0.084653
v -0.139167 0.220954 0.000000
v 0.105975 0.220954 0.000000
v 0.105975 0.085458 -0.085458
v 0.105975 -0.000000 -0.120856
v 0.105975 -0.085458 -0.085458
v 0.105975 -0.120856 0.000000
v 0.105975 -0.085458 0.085458
v 0.105975 -0.000000 0.120856
v 0.105975 0.085458 0.085458
v 0.105975 0.120856 0.000000
v 0.105975 0.158077 -0.065478
v 0.105975 0.065478 -0.158077
v 0.105975 -0.065478 -0.158077
v 0.105975 -0.158077 -0.065478
v 0.105975 -0.158077 0.065478
v 0.105975 -0.065478 0.158077
v 0.105975 0.065478 0.158077
v 0.105975 0.158077 0.065478
v 0.055624 0.085458 -0.085458
v 0.055624 -0.000000 -0.120856
v 0.055624 -0.085458 -0.085458
v 0.055624 -0.120856 0.000000
v 0.055624 -0.085458 0.085458
v 0.055624 -0.000000 0.120856
v 0.055624 0.085458 0.085458
v 0.055624 0.120856 0.000000
v 0.080799 -0.046303 -0.111785
v 0.080799 -0.111785 -0.046303
v 0.080799 0.111785 -0.046303
v 0.080799 0.046303 -0.111785
v 0.080799 0.111785 0.046303
v 0.080799 -0.046303 0.111785
v 0.080799 0.046303 0.111785
v 0.080799 -0.111785 0.046303
v 0.055624 0.032418 -0.032417
v 0.055624 -0.000000 -0.045845
v 0.055624 -0.032418 -0.032417
v 0.055624 -0.045845 0.000000
v 0.055624 -0.032418 0.032418
v 0.055624 -0.000000 0.045845
v 0.055624 0.032418 0.032418
v 0.055624 0.045845 0.000000
v 0.055624 0.077095 -0.031933
v 0.055624 0.031934 -0.077094
v 0.055624 -0.031934 -0.077094
v 0.055624 -0.077095 -0.031934
v 0.055624 -0.077095 0.031934
v 0.055624 -0.031934 0.077095
v 0.055624 0.031934 0.077095
v 0.055624 0.077095 0.031934
v 0.076817 0.032418 -0.032417
v 0.076817 -0.000000 -0.045845
v 0.076817 -0.032418 -0.032417
v 0.076817 -0.045845 0.000000
v 0.076817 -0.032418 0.032418
v 0.076817 -0.000000 0.045845
v 0.076817 0.032418 0.032418
v 0.076817 0.045845 0.000000
v 0.066220 -0.042404 -0.017564
v 0.066220 -0.042404 0.017565
v 0.066220 0.017564 -0.042404
v 0.066220 -0.017564 -0.042404
v 0.066220 0.017564 0.042404
v 0.066220 0.042404 0.017565
v 0.066220 -0.017564 0.042404
v 0.066220 0.042404 -0.017564
v -0.139167 0.085214 -0.085214
v -0.139167 0.000000 -0.120511
v -0.139167 -0.085214 -0.085214
v -0.139167 -0.120511 0.000000
v -0.139167 -0.085214 0.085214
v -0.139167 0.000000 0.120511
v -0.139167 0.085214 0.085214
v -0.139167 0.120511 0.000000
v -0.139167 0.065412 -0.157918
v -0.139167 0.157918 -0.065412
v -0.139167 -0.065412 -0.157918
v -0.139167 -0.157918 -0.065412
v -0.139167 -0.157918 0.065412
v -0.139167 -0.065412 0.157918
v -0.139167 0.065412 0.157918
v -0.139167 0.157918 0.065412
v -0.121678 0.085214 -0.085214
v -0.121678 0.000000 -0.120511
v -0.121678 -0.085214 -0.085214
v -0.121678 -0.120511 0.000000
v -0.121678 -0.085214 0.085214
v -0.121678 0.000000 0.120511
v -0.121678 0.085214 0.085214
v -0.121678 0.120511 0.000000
v -0.130423 0.111466 0.046171
v -0.130423 0.046171 0.111466
v -0.130423 -0.046171 0.111466
v -0.130423 -0.111466 0.046171
v -0.130423 -0.111466 -0.046170
v -0.130423 -0.046171 -0.111466
v -0.130423 0.046171 -0.111466
v -0.130423 0.111466 -0.046170
v -0.016596 0.156238 -0.156238
v -0.016596 0.000000 -0.220953
v -0.016596 -0.156238 -0.156238
v -0.016596 -0.220954 0.000000
v -0.016596 -0.156238 0.156238
v -0.016596 0.000000 0.220954
v -0.016596 0.156238 0.156238
v 0.080799 -0.085458 -0.085458
v -0.130423 0.085214 0.085214
v -0.016596 0.220953 0.000000
v 0.105975 0.120848 -0.120848
v 0.105975 -0.000000 -0.170904
v 0.105975 -0.120848 -0.120848
v 0.105975 -0.170905 0.000000
v 0.105975 -0.120848 0.120848
v 0.105975 -0.000000 0.170905
v 0.105975 0.120848 0.120848
v 0.105975 0.170905 0.000000
v 0.066220 -0.045845 0.000000
v 0.080799 0.085458 -0.085458
v 0.080799 0.120856 0.000000
v 0.080799 -0.000000 0.120856
v 0.080799 -0.120856 0.000000
v 0.080799 -0.000000 -0.120856
v 0.080799 0.085458 0.085458
v 0.080799 -0.085458 0.085458
v 0.055624 0.058938 -0.058938
v 0.055624 -0.000000 -0.083350
v 0.055624 -0.058938 -0.058938
v 0.055624 -0.083351 0.000000
v 0.055624 -0.058938 0.058938
v 0.055624 -0.000000 0.083351
v 0.055624 0.058938 0.058938
v 0.055624 0.083351 0.000000
v 0.076817 -0.000000 0.000000
v 0.066220 -0.000000 -0.045845
v 0.066220 0.032418 0.032418
v 0.066220 -0.032418 0.032418
v 0.066220 -0.032418 -0.032417
v 0.066220 0.032418 -0.032417
v 0.066220 0.045845 0.000000
v 0.066220 -0.000000 0.045845
v -0.139167 0.120726 -0.120726
v -0.139167 0.000000 -0.170732
v -0.139167 -0.120726 -0.120726
v -0.139167 -0.170732 0.000000
v -0.139167 -0.120726 0.120726
v -0.139167 0.000000 0.170732
v -0.139167 0.120726 0.120726
v -0.139167 0.170732 0.000000
v -0.121678 0.000000 0.000000
v -0.130423 -0.085214 0.085214
v -0.130423 -0.085214 -0.085214
v -0.130423 0.085214 -0.085214
v -0.130423 0.120511 0.000000
v -0.130423 0.000000 0.120511
v -0.130423 -0.120511 0.000000
v -0.130423 0.000000 -0.120511
vn -0.7545 -0.6064 0.2512
vn 0.7545 -0.6064 0.2512
vn -0.7545 -0.2512 0.6064
vn 0.7545 -0.2512 0.6064
vn -0.7545 0.2512 0.6064
vn 0.7545 0.2512 0.6064
vn -0.7545 0.6064 0.2512
vn 0.7545 0.6064 0.2512
vn -0.7545 0.6064 -0.2512
vn 0.7545 0.6064 -0.2512
vn -0.7545 0.2512 -0.6064
vn 0.7545 0.2512 -0.6064
vn -0.7545 -0.2512 -0.6064
vn 0.7545 -0.2512 -0.6064
vn -0.7545 -0.6064 -0.2512
vn 0.7545 -0.6064 -0.2512
vn 0.6652 0.2858 -0.6899
vn 0.6652 0.6899 -0.2858
vn 0.6652 -0.2858 -0.6899
vn 0.6652 -0.6899 -0.2858
vn 0.6652 -0.6899 0.2858
vn 0.6652 -0.2858 0.6899
vn 0.6652 0.2858 0.6899
vn 0.6652 0.6899 0.2858
vn -0.6652 0.6899 -0.2858
vn -0.6652 0.2858 -0.6899
vn -0.6652 -0.2858 -0.6899
vn -0.6652 -0.6899 -0.2858
vn -0.6652 -0.6899 0.2858
vn -0.6652 -0.2858 0.6899
vn -0.6652 0.2858 0.6899
vn -0.6652 0.6899 0.2858
vn -0.0000 0.9239 -0.3827
vn -0.6663 0.5273 -0.5273
vn 0.6663 0.5273 -0.5273
vn -0.0000 0.3827 -0.9239
vn -0.6663 -0.0000 -0.7457
vn 0.6663 -0.0000 -0.7457
vn -0.0000 -0.3827 -0.9239
vn -0.6663 -0.5273 -0.5273
vn 0.6663 -0.5273 -0.5273
vn -0.0000 -0.9239 -0.3827
vn -0.6663 -0.7457 -0.0000
vn 0.6663 -0.7457 -0.0000
vn -0.0000 -0.9239 0.3827
vn -0.6663 -0.5273 0.5273
vn 0.6663 -0.5273 0.5273
vn -0.0000 -0.3827 0.9239
vn -0.6663 -0.0000 0.7457
vn 0.6663 -0.0000 0.7457
vn -0.0000 0.3827 0.9239
vn -0.6663 0.5273 0.5273
vn 0.6663 0.5273 0.5273
vn -0.0000 0.9239 0.3827
vn -0.6663 0.7457 -0.0000
vn 0.6663 0.7457 -0.0000
vn 0.7530 -0.4653 0.4653
vn 0.7530 -0.0000 0.6580
vn 0.7530 0.4653 0.4653
vn 0.7530 0.6580 -0.0000
vn 0.7530 0.4653 -0.4653
vn 0.7530 -0.0000 -0.6580
vn 0.7530 -0.4653 -0.4653
vn 0.7530 -0.6580 -0.0000
vn 1.0000 -0.0000 -0.0000
vn -0.7530 -0.4653 0.4653
vn -0.7530 -0.0000 0.6580
vn -0.7530 0.4653 0.4653
vn -0.7530 0.6580 -0.0000
vn -0.7530 0.4653 -0.4653
vn -0.7530 -0.0000 -0.6580
vn -0.7530 -0.4653 -0.4653
vn -0.7530 -0.6580 -0.0000
vn -1.0000 -0.0000 -0.0000
vn -0.0000 0.7071 -0.7071
vn -0.0000 -0.0000 -1.0000
vn -0.0000 -0.7071 -0.7071
vn -0.0000 -1.0000 -0.0000
vn -0.0000 -0.7071 0.7071
vn -0.0000 -0.0000 1.0000
vn -0.0000 0.7071 0.7071
vn -0.0000 1.0000 -0.0000
vt 0.968159 0.035124
vt 0.968159 0.035124
vt 0.968159 0.035124
vt 0.968159 0.035124
vt 0.968159 0.035124
vt 0.968159 0.035124
vt 0.966609 0.467629
vt 0.966609 0.467629
vt 0.966609 0.467629
vt 0.278322 0.963691
vt 0.278322 0.963692
vt 0.214764 0.963691
vt 0.214764 0.963692
vt 0.214764 0.963691
vt 0.966609 0.467629
vt 0.966609 0.467629
vt 0.966609 0.467629
s 1
usemtl Kart
f 18/1/18 67/2/35 185/3/75 65/1/33
f 67/2/35 17/1/17 68/1/36 185/3/75
f 185/3/75 68/1/36 50/1/26 66/2/34
f 65/1/33 185/3/75 66/2/34 49/1/25
f 17/1/17 70/2/38 186/3/76 68/1/36
f 70/2/38 19/1/19 71/1/39 186/3/76
f 186/3/76 71/1/39 51/1/27 69/2/37
f 68/1/36 186/3/76 69/2/37 50/1/26
f 19/1/19 73/2/41 187/3/77 71/1/39
f 73/2/41 20/1/20 74/1/42 187/3/77
f 187/3/77 74/1/42 52/1/28 72/2/40
f 71/1/39 187/3/77 72/2/40 51/1/27
f 20/1/20 76/2/44 188/3/78 74/1/42
f 76/2/44 21/1/21 77/1/45 188/3/78
f 188/3/78 77/1/45 53/1/29 75/2/43
f 74/1/42 188/3/78 75/2/43 52/1/28
f 21/1/21 79/2/47 189/3/79 77/1/45
f 79/2/47 22/1/22 80/1/48 189/3/79
f 189/3/79 80/1/48 54/1/30 78/2/46
f 77/1/45 189/3/79 78/2/46 53/1/29
f 22/1/22 82/2/50 190/3/80 80/1/48
f 82/2/50 23/1/23 83/1/51 190/3/80
f 190/3/80 83/1/51 55/1/31 81/2/49
f 80/1/48 190/3/80 81/2/49 54/1/30
f 23/1/23 85/2/53 191/3/81 83/1/51
f 85/2/53 24/1/24 86/1/54 191/3/81
f 191/3/81 86/1/54 56/1/32 84/2/52
f 83/1/51 191/3/81 84/2/52 55/1/31
f 8/1/8 91/1/59 192/4/81 114/5/54
f 91/1/59 6/1/6 113/5/51 192/4/81
f 192/4/81 113/5/51 35/6/23 107/1/53
f 114/5/54 192/4/81 107/1/53 36/6/24
f 13/1/13 159/1/72 193/4/77 178/5/39
f 159/1/72 15/1/15 177/5/42 193/4/77
f 193/4/77 177/5/42 64/6/28 175/1/40
f 178/5/39 193/4/77 175/1/40 63/6/27
f 56/1/32 86/5/54 194/6/82 87/2/55
f 86/5/54 24/1/24 88/2/56 194/6/82
f 194/6/82 88/2/56 18/1/18 65/5/33
f 87/2/55 194/6/82 65/5/33 49/1/25
f 2/1/2 89/2/57 195/3/65 97/1/65
f 89/2/57 4/1/4 98/1/65 195/3/65
f 195/3/65 98/1/65 17/1/17 67/2/35
f 97/1/65 195/3/65 67/2/35 18/1/18
f 4/1/4 90/2/58 196/3/65 98/1/65
f 90/2/58 6/1/6 99/1/65 196/3/65
f 196/3/65 99/1/65 19/1/19 70/2/38
f 98/1/65 196/3/65 70/2/38 17/1/17
f 6/1/6 91/2/59 197/3/65 99/1/65
f 91/2/59 8/1/8 100/1/65 197/3/65
f 197/3/65 100/1/65 20/1/20 73/2/41
f 99/1/65 197/3/65 73/2/41 19/1/19
f 8/1/8 92/2/60 198/3/65 100/1/65
f 92/2/60 10/1/10 101/1/65 198/3/65
f 198/3/65 101/1/65 21/1/21 76/2/44
f 100/1/65 198/3/65 76/2/44 20/1/20
f 10/1/10 93/2/61 199/3/65 101/1/65
f 93/2/61 12/1/12 102/1/65 199/3/65
f 199/3/65 102/1/65 22/1/22 79/2/47
f 101/1/65 199/3/65 79/2/47 21/1/21
f 12/1/12 94/2/62 200/3/65 102/1/65
f 94/2/62 14/1/14 103/1/65 200/3/65
f 200/3/65 103/1/65 23/1/23 82/2/50
f 102/1/65 200/3/65 82/2/50 22/1/22
f 14/1/14 95/2/63 201/3/65 103/1/65
f 95/2/63 16/1/16 104/1/65 201/3/65
f 201/3/65 104/1/65 24/1/24 85/2/53
f 103/1/65 201/3/65 85/2/53 23/1/23
f 16/1/16 96/2/64 202/3/65 104/1/65
f 96/2/64 2/1/2 97/1/65 202/3/65
f 202/3/65 97/1/65 18/1/18 88/2/56
f 104/1/65 202/3/65 88/2/56 24/1/24
f 29/7/2 124/8/64 203/7/78 146/7/45
f 124/8/64 28/7/16 145/7/42 203/7/78
f 203/7/78 145/7/42 44/9/20 140/8/44
f 146/7/45 203/7/78 140/8/44 45/9/21
f 4/1/4 89/1/57 204/4/79 116/5/48
f 89/1/57 2/1/2 115/5/45 204/4/79
f 204/4/79 115/5/45 34/6/21 105/1/47
f 116/5/48 204/4/79 105/1/47 33/6/22
f 2/1/2 96/1/64 205/4/78 115/5/45
f 96/1/64 16/1/16 117/5/42 205/4/78
f 205/4/78 117/5/42 40/6/20 112/1/44
f 115/5/45 205/4/78 112/1/44 34/6/21
f 14/1/14 94/1/62 206/4/76 119/5/39
f 94/1/62 12/1/12 118/5/36 206/4/76
f 206/4/76 118/5/36 38/6/17 110/1/38
f 119/5/39 206/4/76 110/1/38 39/6/19
f 10/1/10 92/1/60 207/4/82 120/5/33
f 92/1/60 8/1/8 114/5/54 207/4/82
f 207/4/82 114/5/54 36/6/24 108/1/56
f 120/5/33 207/4/82 108/1/56 37/6/18
f 6/1/6 90/1/58 208/4/80 113/5/51
f 90/1/58 4/1/4 116/5/48 208/4/80
f 208/4/80 116/5/48 33/6/22 106/1/50
f 113/5/51 208/4/80 106/1/50 35/6/23
f 16/1/16 95/1/63 209/4/77 117/5/42
f 95/1/63 14/1/14 119/5/39 209/4/77
f 209/4/77 119/5/39 39/6/19 111/1/41
f 117/5/42 209/4/77 111/1/41 40/6/20
f 12/1/12 93/1/61 210/4/75 118/5/36
f 93/1/61 10/1/10 120/5/33 210/4/75
f 210/4/75 120/5/33 37/6/18 109/1/35
f 118/5/36 210/4/75 109/1/35 38/6/17
f 26/10/10 121/11/61 211/10/65 129/11/65
f 121/11/61 25/10/12 130/11/65 211/10/65
f 211/10/65 130/11/65 33/10/22 105/11/47
f 129/11/65 211/10/65 105/11/47 34/10/21
f 25/12/12 122/13/62 212/14/65 130/13/65
f 122/13/62 27/12/14 131/13/65 212/14/65
f 212/14/65 131/13/65 35/12/23 106/13/50
f 130/13/65 212/14/65 106/13/50 33/12/22
f 27/10/14 123/11/63 213/10/65 131/11/65
f 123/11/63 28/10/16 132/11/65 213/10/65
f 213/10/65 132/11/65 36/10/24 107/11/53
f 131/11/65 213/10/65 107/11/53 35/10/23
f 28/12/16 124/13/64 214/14/65 132/13/65
f 124/13/64 29/12/2 133/13/65 214/14/65
f 214/14/65 133/13/65 37/12/18 108/13/56
f 132/13/65 214/14/65 108/13/56 36/12/24
f 29/10/2 125/11/57 215/10/65 133/11/65
f 125/11/57 30/10/4 134/11/65 215/10/65
f 215/10/65 134/11/65 38/10/17 109/11/35
f 133/11/65 215/10/65 109/11/35 37/10/18
f 30/12/4 126/13/58 216/14/65 134/13/65
f 126/13/58 31/12/6 135/13/65 216/14/65
f 216/14/65 135/13/65 39/12/19 110/13/38
f 134/13/65 216/14/65 110/13/38 38/12/17
f 31/10/6 127/11/59 217/10/65 135/11/65
f 127/11/59 32/10/8 136/11/65 217/10/65
f 217/10/65 136/11/65 40/10/20 111/11/41
f 135/11/65 217/10/65 111/11/41 39/10/19
f 32/12/8 128/13/60 218/14/65 136/13/65
f 128/13/60 26/12/10 129/13/65 218/14/65
f 218/14/65 129/13/65 34/12/21 112/13/44
f 136/13/65 218/14/65 112/13/44 40/12/20
f 42/15/18 144/8/56 219/16/65 137/8/35
f 48/15/24 143/8/53 219/16/65 144/8/56
f 47/15/23 142/8/50 219/16/65 143/8/53
f 46/15/22 141/8/47 219/16/65 142/8/50
f 45/15/21 140/8/44 219/16/65 141/8/47
f 44/15/20 139/8/41 219/16/65 140/8/44
f 43/15/19 138/8/38 219/16/65 139/8/41
f 41/15/17 137/8/35 219/16/65 138/8/38
f 27/7/14 122/8/62 220/7/76 148/7/39
f 122/8/62 25/7/12 147/7/36 220/7/76
f 220/7/76 147/7/36 41/9/17 138/8/38
f 148/7/39 220/7/76 138/8/38 43/9/19
f 32/7/8 127/8/59 221/7/81 150/7/54
f 127/8/59 31/7/6 149/7/51 221/7/81
f 221/7/81 149/7/51 47/9/23 143/8/53
f 150/7/54 221/7/81 143/8/53 48/9/24
f 30/7/4 125/8/57 222/7/79 151/7/48
f 125/8/57 29/7/2 146/7/45 222/7/79
f 222/7/79 146/7/45 45/9/21 141/8/47
f 151/7/48 222/7/79 141/8/47 46/9/22
f 28/7/16 123/8/63 223/7/77 145/7/42
f 123/8/63 27/7/14 148/7/39 223/7/77
f 223/7/77 148/7/39 43/9/19 139/8/41
f 145/7/42 223/7/77 139/8/41 44/9/20
f 25/7/12 121/8/61 224/7/75 147/7/36
f 121/8/61 26/7/10 152/7/33 224/7/75
f 224/7/75 152/7/33 42/9/18 137/8/35
f 147/7/36 224/7/75 137/8/35 41/9/17
f 26/7/10 128/8/60 225/7/82 152/7/33
f 128/8/60 32/7/8 150/7/54 225/7/82
f 225/7/82 150/7/54 48/9/24 144/8/56
f 152/7/33 225/7/82 144/8/56 42/9/18
f 31/7/6 126/8/58 226/7/80 149/7/51
f 126/8/58 30/7/4 151/7/48 226/7/80
f 226/7/80 151/7/48 46/9/22 142/8/50
f 149/7/51 226/7/80 142/8/50 47/9/23
f 3/1/3 153/2/66 227/3/74 161/1/74
f 153/2/66 1/1/1 162/1/74 227/3/74
f 227/3/74 162/1/74 49/1/25 66/2/34
f 161/1/74 227/3/74 66/2/34 50/1/26
f 5/1/5 154/2/67 228/3/74 163/1/74
f 154/2/67 3/1/3 161/1/74 228/3/74
f 228/3/74 161/1/74 50/1/26 69/2/37
f 163/1/74 228/3/74 69/2/37 51/1/27
f 7/1/7 155/2/68 229/3/74 164/1/74
f 155/2/68 5/1/5 163/1/74 229/3/74
f 229/3/74 163/1/74 51/1/27 72/2/40
f 164/1/74 229/3/74 72/2/40 52/1/28
f 9/1/9 156/2/69 230/3/74 165/1/74
f 156/2/69 7/1/7 164/1/74 230/3/74
f 230/3/74 164/1/74 52/1/28 75/2/43
f 165/1/74 230/3/74 75/2/43 53/1/29
f 11/1/11 157/2/70 231/3/74 166/1/74
f 157/2/70 9/1/9 165/1/74 231/3/74
f 231/3/74 165/1/74 53/1/29 78/2/46
f 166/1/74 231/3/74 78/2/46 54/1/30
f 13/1/13 158/2/71 232/3/74 167/1/74
f 158/2/71 11/1/11 166/1/74 232/3/74
f 232/3/74 166/1/74 54/1/30 81/2/49
f 167/1/74 232/3/74 81/2/49 55/1/31
f 15/1/15 159/2/72 233/3/74 168/1/74
f 159/2/72 13/1/13 167/1/74 233/3/74
f 233/3/74 167/1/74 55/1/31 84/2/52
f 168/1/74 233/3/74 84/2/52 56/1/32
f 1/1/1 160/2/73 234/3/74 162/1/74
f 160/2/73 15/1/15 168/1/74 234/3/74
f 234/3/74 168/1/74 56/1/32 87/2/55
f 162/1/74 234/3/74 87/2/55 49/1/25
f 57/8/29 169/8/46 235/17/74 176/8/43
f 58/8/30 170/8/49 235/17/74 169/8/46
f 59/8/31 171/8/52 235/17/74 170/8/49
f 60/8/32 172/8/55 235/17/74 171/8/52
f 61/8/25 173/8/34 235/17/74 172/8/55
f 62/8/26 174/8/37 235/17/74 173/8/34
f 63/8/27 175/8/40 235/17/74 174/8/37
f 64/8/28 176/8/43 235/17/74 175/8/40
f 9/1/9 157/1/70 236/4/75 180/5/33
f 157/1/70 11/1/11 179/5/36 236/4/75
f 236/4/75 179/5/36 62/6/26 173/1/34
f 180/5/33 236/4/75 173/1/34 61/6/25
f 5/1/5 155/1/68 237/4/81 182/5/51
f 155/1/68 7/1/7 181/5/54 237/4/81
f 237/4/81 181/5/54 60/6/32 171/1/52
f 182/5/51 237/4/81 171/1/52 59/6/31
f 1/1/1 153/1/66 238/4/79 184/5/45
f 153/1/66 3/1/3 183/5/48 238/4/79
f 238/4/79 183/5/48 58/6/30 169/1/46
f 184/5/45 238/4/79 169/1/46 57/6/29
f 15/1/15 160/1/73 239/4/78 177/5/42
f 160/1/73 1/1/1 184/5/45 239/4/78
f 239/4/78 184/5/45 57/6/29 176/1/43
f 177/5/42 239/4/78 176/1/43 64/6/28
f 11/1/11 158/1/71 240/4/76 179/5/36
f 158/1/71 13/1/13 178/5/39 240/4/76
f 240/4/76 178/5/39 63/6/27 174/1/37
f 179/5/36 240/4/76 174/1/37 62/6/26
f 7/1/7 156/1/69 241/4/82 181/5/54
f 156/1/69 9/1/9 180/5/33 241/4/82
f 241/4/82 180/5/33 61/6/25 172/1/55
f 181/5/54 241/4/82 172/1/55 60/6/32
f 3/1/3 154/1/67 242/4/80 183/5/48
f 154/1/67 5/1/5 182/5/51 242/4/80
f 242/4/80 182/5/51 59/6/31 170/1/49
f 183/5/48 242/4/80 170/1/49 58/6/30
