# Blender 4.4.3
# www.blender.org
mtllib kart_steering_wheel.mtl
o SteeringWheel.001
v 0.179014 0.521182 -0.000893
v 0.161112 0.490176 -0.000888
v 0.125310 0.490176 -0.000888
v 0.107408 0.521182 -0.000893
v 0.125310 0.552188 -0.000897
v 0.161112 0.552188 -0.000897
v 0.165387 0.521192 0.067613
v 0.148849 0.490185 0.060767
v 0.115771 0.490183 0.047066
v 0.099232 0.521188 0.040211
v 0.115771 0.552195 0.047057
v 0.148849 0.552197 0.060758
v 0.126582 0.521200 0.125689
v 0.113924 0.490193 0.113036
v 0.088607 0.490189 0.087719
v 0.075949 0.521193 0.075057
v 0.088607 0.552201 0.087710
v 0.113924 0.552205 0.113027
v 0.068506 0.521206 0.164495
v 0.061655 0.490198 0.147960
v 0.047954 0.490193 0.114883
v 0.041103 0.521197 0.098340
v 0.047954 0.552205 0.114874
v 0.061655 0.552210 0.147951
v 0.000000 0.521208 0.178121
v 0.000000 0.490199 0.160224
v 0.000000 0.490194 0.124421
v 0.000000 0.521198 0.106516
v 0.000000 0.552206 0.124413
v 0.000000 0.552212 0.160215
v -0.068506 0.521206 0.164495
v -0.061655 0.490198 0.147960
v -0.047954 0.490193 0.114883
v -0.041103 0.521197 0.098340
v -0.047954 0.552205 0.114874
v -0.061655 0.552210 0.147951
v -0.126582 0.521200 0.125689
v -0.113924 0.490193 0.113035
v -0.088607 0.490189 0.087719
v -0.075949 0.521193 0.075056
v -0.088607 0.552201 0.087710
v -0.113924 0.552205 0.113027
v -0.165387 0.521192 0.067613
v -0.148849 0.490185 0.060767
v -0.115771 0.490183 0.047066
v -0.099232 0.521188 0.040211
v -0.115771 0.552195 0.047057
v -0.148849 0.552197 0.060758
v -0.179014 0.521182 -0.000893
v -0.161112 0.490176 -0.000888
v -0.125310 0.490176 -0.000888
v -0.107408 0.521182 -0.000893
v -0.125310 0.552188 -0.000897
v -0.161112 0.552188 -0.000897
v -0.165387 0.521173 -0.069398
v -0.148849 0.490167 -0.062543
v -0.115771 0.490169 -0.048842
v -0.099232 0.521176 -0.041996
v -0.115771 0.552182 -0.048851
v -0.148849 0.552180 -0.062552
v -0.126582 0.521164 -0.127475
v -0.113924 0.490160 -0.114812
v -0.088607 0.490164 -0.089495
v -0.075949 0.521171 -0.076842
v -0.088607 0.552176 -0.089504
v -0.113924 0.552172 -0.114821
v -0.068506 0.521159 -0.166280
v -0.061655 0.490155 -0.149737
v -0.047954 0.490160 -0.116659
v -0.041103 0.521168 -0.100125
v -0.047954 0.552172 -0.116668
v -0.061655 0.552167 -0.149746
v 0.000000 0.521157 -0.179906
v 0.000000 0.490153 -0.162001
v 0.000000 0.490158 -0.126198
v 0.000000 0.521167 -0.108301
v 0.000000 0.552170 -0.126207
v 0.000000 0.552165 -0.162010
v 0.068506 0.521159 -0.166280
v 0.061655 0.490155 -0.149737
v 0.047954 0.490160 -0.116659
v 0.041103 0.521168 -0.100125
v 0.047954 0.552172 -0.116668
v 0.061655 0.552167 -0.149746
v 0.126582 0.521164 -0.127475
v 0.113924 0.490160 -0.114812
v 0.088607 0.490164 -0.089496
v 0.075949 0.521171 -0.076842
v 0.088607 0.552176 -0.089504
v 0.113924 0.552172 -0.114821
v 0.165387 0.521173 -0.069398
v 0.148848 0.490167 -0.062543
v 0.115771 0.490169 -0.048842
v 0.099232 0.521176 -0.041996
v 0.115771 0.552182 -0.048851
v 0.148848 0.552180 -0.062552
v 0.022800 0.500141 -0.005468
v 0.016893 0.511216 -0.007916
v 0.013098 0.500143 0.009052
v 0.008576 0.511217 0.004530
v -0.013098 0.500143 0.009052
v -0.008576 0.511217 0.004530
v -0.022800 0.500141 -0.005468
v -0.016893 0.511216 -0.007916
v -0.017128 0.500138 -0.029669
v -0.014681 0.511213 -0.023764
v 0.000000 0.500137 -0.033076
v 0.000000 0.511213 -0.026684
v 0.017128 0.500138 -0.029669
v 0.014681 0.511213 -0.023764
v 0.022800 0.500141 -0.005468
v 0.013098 0.500143 0.009052
v -0.013098 0.500143 0.009052
v -0.022800 0.500141 -0.005468
v -0.017128 0.500138 -0.029669
v 0.000000 0.500137 -0.033076
v 0.017128 0.500138 -0.029669
v 0.022800 0.110902 -0.005412
v 0.013098 0.110905 0.009108
v -0.013098 0.110905 0.009108
v -0.022800 0.110902 -0.005412
v -0.017128 0.110899 -0.029614
v 0.000000 0.110898 -0.033020
v 0.017128 0.110899 -0.029614
vn 1.0000 -0.0000 -0.0000
vn 0.9239 0.0001 0.3827
vn 0.5026 -0.8391 0.2083
vn 0.5440 -0.8391 0.0001
vn -0.2826 -0.9576 -0.0561
vn -0.4503 -0.8929 0.0001
vn -0.9302 0.1885 -0.3150
vn -1.0000 -0.0000 -0.0000
vn -0.4160 0.8929 -0.1724
vn -0.4503 0.8929 -0.0001
vn 0.5026 0.8391 0.2080
vn 0.5440 0.8391 -0.0001
vn 0.7071 0.0001 0.7071
vn 0.3846 -0.8391 0.3848
vn -0.1601 -0.9576 -0.2394
vn -0.0000 -0.9943 0.1066
vn -0.0212 -0.9941 0.1065
vn -0.0075 -0.9993 0.0377
vn -0.0000 -0.9984 0.0565
vn -0.6470 0.1885 -0.7389
vn -0.3184 0.8928 -0.3185
vn 0.3846 0.8392 0.3845
vn 0.3827 0.0001 0.9239
vn 0.2082 -0.8390 0.5027
vn -0.1723 -0.8929 -0.4159
vn -0.3827 -0.0001 -0.9239
vn -0.1723 0.8928 -0.4161
vn 0.2082 0.8392 0.5024
vn -0.0000 0.0001 1.0000
vn -0.0000 -0.8390 0.5441
vn -0.0000 -0.8929 -0.4502
vn -0.0000 -0.0001 -1.0000
vn -0.0000 0.8928 -0.4504
vn -0.0000 0.8392 0.5438
vn -0.3827 0.0001 0.9239
vn -0.2082 -0.8390 0.5027
vn 0.1723 -0.8929 -0.4159
vn 0.3827 -0.0001 -0.9239
vn 0.1723 0.8928 -0.4161
vn -0.2082 0.8392 0.5024
vn -0.7071 0.0001 0.7071
vn -0.3846 -0.8391 0.3848
vn 0.1601 -0.9576 -0.2394
vn 0.6470 0.1885 -0.7389
vn 0.3184 0.8928 -0.3185
vn -0.3846 0.8392 0.3845
vn -0.9239 0.0001 0.3827
vn -0.5026 -0.8391 0.2083
vn 0.2826 -0.9576 -0.0561
vn -0.9432 0.0321 0.3306
vn -0.9744 0.1555 0.1624
vn -0.5510 0.8333 0.0440
vn 0.9302 0.1885 -0.3150
vn 0.4160 0.8929 -0.1724
vn -0.5026 0.8391 0.2080
vn -0.5440 -0.8391 0.0001
vn 0.4503 -0.8929 0.0001
vn 0.4503 0.8929 -0.0001
vn -0.5440 0.8391 -0.0001
vn -0.9239 -0.0001 -0.3827
vn -0.5026 -0.8391 -0.2080
vn 0.4160 -0.8929 0.1724
vn 0.4160 0.8929 0.1722
vn -0.5026 0.8391 -0.2083
vn -0.7071 -0.0001 -0.7071
vn -0.3846 -0.8392 -0.3845
vn 0.3184 -0.8928 0.3185
vn 0.3184 0.8929 0.3183
vn -0.3846 0.8391 -0.3848
vn -0.2082 -0.8392 -0.5024
vn 0.1601 -0.9576 0.2397
vn 0.4350 0.1887 0.8804
vn 0.1723 0.8929 0.4159
vn -0.2082 0.8390 -0.5027
vn -0.0000 -0.8392 -0.5438
vn -0.0000 -1.0000 0.0001
vn 0.7222 -0.0124 0.6916
vn 0.5094 0.1389 0.8492
vn 0.1835 0.8676 0.4621
vn -0.0000 0.5001 0.8660
vn -0.0000 0.8929 0.4502
vn -0.0000 0.8390 -0.5441
vn 0.2082 -0.8392 -0.5024
vn -0.1601 -0.9576 0.2397
vn -0.0000 0.9926 0.1211
vn 0.0241 0.9924 0.1210
vn -0.0000 0.9977 0.0681
vn -0.4350 0.1887 0.8804
vn -0.1723 0.8929 0.4159
vn 0.2082 0.8390 -0.5027
vn 0.7071 -0.0001 -0.7071
vn 0.3846 -0.8392 -0.3845
vn -0.3184 -0.8928 0.3185
vn -0.3184 0.8929 0.3183
vn 0.3846 0.8391 -0.3848
vn 0.9239 -0.0001 -0.3827
vn 0.5026 -0.8391 -0.2080
vn -0.4160 -0.8929 0.1724
vn -0.4160 0.8929 0.1722
vn 0.5026 0.8391 -0.2083
vn -0.3864 0.8843 -0.2621
vn -0.7127 0.2014 -0.6719
vn -0.1835 0.8676 0.4621
vn -0.5094 0.1389 0.8492
vn 0.3864 0.8843 -0.2621
vn 0.7127 0.2014 -0.6719
vn 0.9744 0.1555 0.1624
vn 0.5510 0.8333 0.0440
vn 0.9432 0.0321 0.3306
vn -0.0775 -0.9957 -0.0516
vn -0.0281 -0.9994 -0.0186
vn -0.0267 -0.9995 -0.0177
vn -0.0241 0.9924 0.1210
vn 0.0775 -0.9957 -0.0516
vn 0.0267 -0.9995 -0.0177
vn 0.0281 -0.9994 -0.0186
vn 0.4966 0.0737 -0.8649
vn -0.7222 -0.0124 0.6916
vn 0.0212 -0.9941 0.1065
vn 0.0075 -0.9993 0.0377
vn -0.4966 0.0737 -0.8649
vn -0.0866 0.9946 -0.0580
vn 0.0866 0.9946 -0.0580
vn -0.9839 -0.0000 0.1785
vn -0.6950 -0.0001 -0.7190
vn 0.6950 -0.0001 -0.7190
vn 0.9839 -0.0000 0.1785
vn 0.4714 0.0001 0.8819
vn -0.4714 0.0001 0.8819
vt 0.972656 0.085938
vt 0.966797 0.779297
s 1
usemtl Kart
f 1/1/1 7/1/2 8/1/3 2/1/4
f 2/1/4 8/1/3 9/1/5 3/1/6
f 3/1/6 9/1/5 10/1/7 4/1/8
f 4/1/8 10/1/7 11/1/9 5/1/10
f 5/1/10 11/1/9 12/1/11 6/1/12
f 6/1/12 12/1/11 7/1/2 1/1/1
f 7/1/2 13/1/13 14/1/14 8/1/3
f 8/1/3 14/1/14 15/1/15 9/1/5
f 75/2/16 81/2/17 109/2/18 107/2/19
f 10/1/7 16/1/20 17/1/21 11/1/9
f 11/1/9 17/1/21 18/1/22 12/1/11
f 12/1/11 18/1/22 13/1/13 7/1/2
f 13/1/13 19/1/23 20/1/24 14/1/14
f 14/1/14 20/1/24 21/1/25 15/1/15
f 15/1/15 21/1/25 22/1/26 16/1/20
f 16/1/20 22/1/26 23/1/27 17/1/21
f 17/1/21 23/1/27 24/1/28 18/1/22
f 18/1/22 24/1/28 19/1/23 13/1/13
f 19/1/23 25/1/29 26/1/30 20/1/24
f 20/1/24 26/1/30 27/1/31 21/1/25
f 21/1/25 27/1/31 28/1/32 22/1/26
f 22/1/26 28/1/32 29/1/33 23/1/27
f 23/1/27 29/1/33 30/1/34 24/1/28
f 24/1/28 30/1/34 25/1/29 19/1/23
f 25/1/29 31/1/35 32/1/36 26/1/30
f 26/1/30 32/1/36 33/1/37 27/1/31
f 27/1/31 33/1/37 34/1/38 28/1/32
f 28/1/32 34/1/38 35/1/39 29/1/33
f 29/1/33 35/1/39 36/1/40 30/1/34
f 30/1/34 36/1/40 31/1/35 25/1/29
f 31/1/35 37/1/41 38/1/42 32/1/36
f 32/1/36 38/1/42 39/1/43 33/1/37
f 33/1/37 39/1/43 40/1/44 34/1/38
f 34/1/38 40/1/44 41/1/45 35/1/39
f 35/1/39 41/1/45 42/1/46 36/1/40
f 36/1/40 42/1/46 37/1/41 31/1/35
f 37/1/41 43/1/47 44/1/48 38/1/42
f 38/1/42 44/1/48 45/1/49 39/1/43
f 70/2/50 69/2/50 105/2/51 106/2/52
f 40/1/44 46/1/53 47/1/54 41/1/45
f 41/1/45 47/1/54 48/1/55 42/1/46
f 42/1/46 48/1/55 43/1/47 37/1/41
f 43/1/47 49/1/8 50/1/56 44/1/48
f 44/1/48 50/1/56 51/1/57 45/1/49
f 45/1/49 51/1/57 52/1/1 46/1/53
f 46/1/53 52/1/1 53/1/58 47/1/54
f 47/1/54 53/1/58 54/1/59 48/1/55
f 48/1/55 54/1/59 49/1/8 43/1/47
f 49/1/8 55/1/60 56/1/61 50/1/56
f 50/1/56 56/1/61 57/1/62 51/1/57
f 51/1/57 57/1/62 58/1/2 52/1/1
f 52/1/1 58/1/2 59/1/63 53/1/58
f 53/1/58 59/1/63 60/1/64 54/1/59
f 54/1/59 60/1/64 55/1/60 49/1/8
f 55/1/60 61/1/65 62/1/66 56/1/61
f 56/1/61 62/1/66 63/1/67 57/1/62
f 57/1/62 63/1/67 64/1/13 58/1/2
f 58/1/2 64/1/13 65/1/68 59/1/63
f 59/1/63 65/1/68 66/1/69 60/1/64
f 60/1/64 66/1/69 61/1/65 55/1/60
f 61/1/65 67/1/26 68/1/70 62/1/66
f 62/1/66 68/1/70 69/1/71 63/1/67
f 63/1/67 69/1/71 70/1/72 64/1/13
f 64/1/13 70/1/72 71/1/73 65/1/68
f 65/1/68 71/1/73 72/1/74 66/1/69
f 66/1/69 72/1/74 67/1/26 61/1/65
f 67/1/26 73/1/32 74/1/75 68/1/70
f 68/1/70 74/1/75 75/1/76 69/1/71
f 40/2/77 39/2/77 101/2/78 102/2/79
f 70/1/72 76/1/80 77/1/81 71/1/73
f 71/1/73 77/1/81 78/1/82 72/1/74
f 72/1/74 78/1/82 73/1/32 67/1/26
f 73/1/32 79/1/38 80/1/83 74/1/75
f 74/1/75 80/1/83 81/1/84 75/1/76
f 76/2/85 70/2/86 106/2/52 108/2/87
f 76/1/80 82/1/88 83/1/89 77/1/81
f 77/1/81 83/1/89 84/1/90 78/1/82
f 78/1/82 84/1/90 79/1/38 73/1/32
f 79/1/38 85/1/91 86/1/92 80/1/83
f 80/1/83 86/1/92 87/1/93 81/1/84
f 81/1/84 87/1/93 88/1/41 82/1/88
f 82/1/88 88/1/41 89/1/94 83/1/89
f 83/1/89 89/1/94 90/1/95 84/1/90
f 84/1/90 90/1/95 85/1/91 79/1/38
f 85/1/91 91/1/96 92/1/97 86/1/92
f 86/1/92 92/1/97 93/1/98 87/1/93
f 87/1/93 93/1/98 94/1/47 88/1/41
f 88/1/41 94/1/47 95/1/99 89/1/94
f 89/1/94 95/1/99 96/1/100 90/1/95
f 90/1/95 96/1/100 91/1/96 85/1/91
f 91/1/96 1/1/1 2/1/4 92/1/97
f 92/1/97 2/1/4 3/1/6 93/1/98
f 93/1/98 3/1/6 4/1/8 94/1/47
f 94/1/47 4/1/8 5/1/10 95/1/99
f 95/1/99 5/1/10 6/1/12 96/1/100
f 96/1/100 6/1/12 1/1/1 91/1/96
f 104/2/101 106/2/52 105/2/51 103/2/102
f 108/2/87 102/2/79 100/2/103
f 100/2/103 102/2/79 101/2/78 99/2/104
f 98/2/105 97/2/106 109/2/107 110/2/108
f 81/2/109 82/2/109 110/2/108 109/2/107
f 9/2/110 15/2/110 99/2/111 97/2/112
f 82/2/113 76/2/85 108/2/87 110/2/108
f 39/2/114 45/2/114 103/2/115 101/2/116
f 10/2/117 9/2/117 97/2/106 98/2/105
f 15/2/118 16/2/118 100/2/103 99/2/104
f 69/2/119 75/2/16 107/2/19 105/2/120
f 45/2/121 46/2/121 104/2/101 103/2/102
f 16/2/122 10/2/122 98/2/105 100/2/103
f 46/2/123 40/2/123 102/2/79 104/2/101
f 108/2/87 100/2/103 98/2/105 110/2/108
f 102/2/79 108/2/87 106/2/52 104/2/101
f 103/2/115 105/2/120 115/2/76 114/2/76
f 107/2/19 109/2/18 117/2/76 116/2/76
f 97/2/112 99/2/111 112/2/76 111/2/76
f 99/2/111 101/2/116 113/2/76 112/2/76
f 109/2/18 97/2/112 111/2/76 117/2/76
f 105/2/120 107/2/19 116/2/76 115/2/76
f 101/2/116 103/2/115 114/2/76 113/2/76
f 114/2/124 115/2/125 122/2/125 121/2/124
f 116/2/32 117/2/126 124/2/126 123/2/32
f 115/2/125 116/2/32 123/2/32 122/2/125
f 111/2/127 112/2/128 119/2/128 118/2/127
f 112/2/128 113/2/129 120/2/129 119/2/128
f 117/2/126 111/2/127 118/2/127 124/2/126
f 113/2/129 114/2/124 121/2/124 120/2/129
