# Blender 4.4.3
# www.blender.org
mtllib boost_panel.mtl
o Plane.003
v -9.768351 0.117990 1.768351
v 9.768352 0.117990 1.768351
v -9.768351 0.117990 -1.768351
v 9.768352 0.117990 -1.768351
v -10.000000 -0.521945 -2.000000
v -10.000000 -0.521945 2.000000
v 10.000000 -0.521945 2.000000
v 10.000000 -0.521945 -2.000000
v -10.000000 0.117990 -2.000000
v -10.000000 0.117990 2.000000
v 10.000000 0.117990 2.000000
v 10.000000 0.117990 -2.000000
v -9.768351 0.117990 -1.768351
v -9.768351 0.117990 1.768351
v 9.768352 0.117990 1.768351
v 9.768352 0.117990 -1.768351
v -9.884175 0.167990 -1.884176
v -9.884175 0.167990 1.884176
v 9.884176 0.167990 1.884176
v 9.884176 0.167990 -1.884176
vn -0.0000 1.0000 -0.0000
vn -1.0000 -0.0000 -0.0000
vn -0.0000 -0.0000 -1.0000
vn -0.0000 -0.0000 1.0000
vn 1.0000 -0.0000 -0.0000
vn -0.3963 0.9181 -0.0000
vn -0.0000 0.9181 0.3963
vn 0.3963 0.9181 -0.0000
vn -0.0000 0.9181 -0.3963
vt 0.440829 0.400000
vt 0.440829 -0.000000
vt 0.472826 -0.000000
vt 0.472826 0.200000
vt 0.440829 0.200000
vt 0.376835 -0.000000
vt 0.408832 -0.000000
vt 0.408832 1.000000
vt 0.376835 1.000000
vt 0.408832 -0.000000
vt 0.440829 -0.000000
vt 0.440829 1.000000
vt 0.408832 1.000000
vt 0.440829 0.200000
vt 0.472826 0.200000
vt 0.472826 0.400000
vt 0.440829 0.400000
vt 0.194209 0.994209
vt 0.200000 1.000000
vt -0.000000 1.000000
vt 0.005791 0.994209
vt 0.000000 0.000000
vt 0.005791 0.005791
vt 0.200000 0.000000
vt 0.194209 0.005791
vt 0.000000 0.000000
vt 1.000000 0.000000
vt 1.000000 1.000000
vt 0.000000 1.000000
vt 0.188418 0.011582
vt 0.188418 0.988418
vt 0.011582 0.011582
vt 0.011582 0.988418
s 0
usemtl BoostPanel
f 14/26/1 15/27/1 16/28/1 13/29/1
usemtl Frame
f 4/1/1 16/1/1 15/1/1 2/1/1
f 9/2/2 5/3/2 6/4/2 10/5/2
f 12/6/3 8/7/3 5/8/3 9/9/3
f 10/10/4 6/11/4 7/12/4 11/13/4
f 11/14/5 7/15/5 8/16/5 12/17/5
f 17/18/6 9/19/6 10/20/6 18/21/6
f 18/21/7 10/20/7 11/22/7 19/23/7
f 19/23/8 11/22/8 12/24/8 20/25/8
f 20/25/9 12/24/9 9/19/9 17/18/9
f 1/1/1 14/1/1 13/1/1 3/1/1
f 3/1/1 13/1/1 16/1/1 4/1/1
f 2/1/1 15/1/1 14/1/1 1/1/1
f 4/30/7 20/25/7 17/18/7 3/31/7
f 2/32/6 19/23/6 20/25/6 4/30/6
f 1/33/9 18/21/9 19/23/9 2/32/9
f 3/31/8 17/18/8 18/21/8 1/33/8
